<svg width="72" height="72" viewBox="0 0 72 72" xmlns="http://www.w3.org/2000/svg" xmlns:sketch="http://www.bohemiancoding.com/sketch/ns"><title>box-icon-site-migration-hover</title><path d="M65 47l-12-9c-.639-.041-1.194-.085-2 0-.113.383-.403.852 0 1v6h-42c-1.562.313-3 1.739-3 4 0 1.261 1.438 2.689 3 3h42v6c-.403.149-.113.618 0 1 .545-.049.759 0 1 0 .257 0 .541-.088 1 0l12-9c.79-.649 1-1.061 1-1 0-.936-.21-1.348-1-2zm-58-19l12 9c.461-.088.744 0 1 0 .242 0 .456-.049 1 0 .116-.382.406-.851 0-1v-6h42c1.566-.312 3-1.739 3-4 0-1.262-1.434-2.69-3-3h-42v-6c.406-.148.116-.62 0-1-.806-.083-1.36-.042-2 0l-12 9c-.789.651-1 1.062-1 1 0 .937.211 1.347 1 2z" sketch:type="MSShapeGroup" fill="#ED0088"/></svg>