<svg width="72" height="72" viewBox="0 0 72 72" xmlns="http://www.w3.org/2000/svg" xmlns:sketch="http://www.bohemiancoding.com/sketch/ns"><title>box-icon-sup-consultant</title><path d="M65.152 59.521c-5.389-5.214-11.966-8.891-19.041-10.65-.178-.099-.38-.149-.588-.149h-.641l-.051.005 2.905 6.274-6.058 11.004h22.618c.679 0 1.229-.547 1.229-1.226v-4.377c0-.332-.135-.65-.373-.881zm-37.44-10.795l-.07-.007h-.467l-.282.032c-7.261 1.712-14.011 5.437-19.52 10.769-.24.232-.374.548-.374.881v4.377c0 .679.551 1.226 1.229 1.226h22.468l-5.947-10.866 2.962-6.412zm8.156-10.327c-.691 0-1.284.388-1.592.954-7.232-.743-9.541-7.005-9.541-7.005h-.04c-1.249 0-2.261-1.069-2.261-2.387 0-.975.551-1.81 1.34-2.183 0 0 3.42-6.746 5.111-14.652 0 0 1.595 12.423 19.884 14.582l-.019.071c.788.373 1.338 1.208 1.338 2.183 0 1.318-1.013 2.387-2.261 2.387h-.039c-.263 3.53-1.944 7.064-4.444 9.487v3.021c8.817-.404 14.828-4.402 14.828-4.402-8.303-5.056-1.174-22.061-10.331-30.014-9.158-7.952-11.58-2.8-11.58-2.8s-2.422-5.152-11.579 2.8-2.028 24.957-10.331 30.013c0 0 5.967 3.967 14.73 4.397v-3.12c-1.355-1.341-2.452-3.014-3.214-4.829 1.642 1.78 4.274 3.603 8.321 4.004.274.657.922 1.118 1.68 1.118 1.004 0 1.819-.812 1.819-1.813s-.815-1.813-1.819-1.813z" sketch:type="MSShapeGroup" fill="#D4D8D9"/></svg>