<svg width="72" height="72" viewBox="0 0 72 72" xmlns="http://www.w3.org/2000/svg" xmlns:sketch="http://www.bohemiancoding.com/sketch/ns"><title>box-icon-dashboard-payment-history-hover</title><path d="M23.813 24.75c0-1.553-1.259-2.813-2.813-2.813h-4.892c4.412-6.235 11.67-10.313 19.892-10.313 13.462 0 24.375 10.914 24.375 24.375 0 13.462-10.913 24.375-24.375 24.375s-24.375-10.913-24.375-24.375c0-1.553-1.259-2.813-2.813-2.813-1.553 0-2.813 1.259-2.813 2.813 0 16.568 13.432 30 30 30 16.568 0 30-13.432 30-30 0-16.568-13.432-30-30-30-10.055 0-18.937 4.957-24.375 12.553v-5.053c0-1.553-1.259-2.813-2.813-2.813-1.553 0-2.813 1.259-2.813 2.813v11.25c0 1.553 1.259 2.813 2.813 2.813h12.188c1.553 0 2.813-1.259 2.813-2.813zm23.345 16.25h-12.316c-1.57 0-2.842-1.287-2.842-2.875v-17.25c0-1.588 1.272-2.875 2.842-2.875s2.842 1.287 2.842 2.875v14.375h9.474c1.57 0 2.842 1.287 2.842 2.875s-1.272 2.875-2.842 2.875z" sketch:type="MSShapeGroup" fill="#ED0088"/></svg>