<svg width="72" height="72" viewBox="0 0 72 72" xmlns="http://www.w3.org/2000/svg" xmlns:sketch="http://www.bohemiancoding.com/sketch/ns"><title>box-icon-html-hover</title><g sketch:type="MSArtboardGroup" fill="none"><path d="M55.475 22.299l-14.779-15.675c-.375-.397-.901-.623-1.454-.623h-24.16c-3.353 0-6.082 2.673-6.082 5.96v48.081c0 3.286 2.729 5.96 6.082 5.96h34.837c3.353 0 6.082-2.674 6.082-5.96v-36.426c0-.487-.187-.958-.525-1.316zm-4.697-.646h-10.444v-10.435l10.444 10.435zm-.822 40.435h-34.911c-1.173 0-2.128-.932-2.128-2.078v-48.018c0-1.145.955-2.078 2.128-2.078h22.623v13.456c0 .505 1.072.914 1.589.914h12.726l.1.106v35.62c0 1.145-.955 2.078-2.128 2.078z" fill="#ED0088" sketch:type="MSShapeGroup"/><rect fill="#ED0088" sketch:type="MSShapeGroup" x="24" y="36" width="39" height="15" rx="4"/><path d="M28 39h1.5v3.408h3.9v-3.408h1.5v8.568h-1.5v-3.864h-3.9v3.864h-1.5v-8.568zm7.884 0h6.936v1.296h-2.724v7.272h-1.5v-7.272h-2.712v-1.296zm7.908 0h2.112l2.364 6.708h.024l2.304-6.708h2.088v8.568h-1.428v-6.612h-.024l-2.376 6.612h-1.236l-2.376-6.612h-.024v6.612h-1.428v-8.568zm10.692 0h1.5v7.272h4.356v1.296h-5.856v-8.568z" fill="#fff" sketch:type="MSShapeGroup"/></g></svg>