<svg width="72" height="72" viewBox="0 0 72 72" xmlns="http://www.w3.org/2000/svg" xmlns:sketch="http://www.bohemiancoding.com/sketch/ns"><title>box-icon-business-informer</title><path d="M62.445 13.188c-.365-.41-.882-.651-1.428-.667l-34.888-1.021c-1.062-.014-1.974.789-2.047 1.859-.013.202-1.371 19.784-6.29 29.706l4.341.088c3.81-8.973 5.323-22.597 5.77-27.615l30.88.903c-2.112 22.318-6.849 39.475-11.197 40.272-.689.128-3.264-.147-7.485-8.941-.324-.675-1.002-1.11-1.75-1.128l-30.813-.712c-.613-.024-1.192.253-1.581.721-.389.47-.541 1.092-.412 1.688.103.482 2.639 11.815 11.964 12.035 10.088.239 29.577.411 29.773.413h.017c.218 0 .428-.036.625-.1l.378-.057c9.794-1.791 13.497-32.697 14.638-45.946.048-.546-.132-1.087-.496-1.497zm-44.841 43.205c-4.034-.095-6.273-3.818-7.347-6.414l26.792.62c1.043 2.083 2.298 4.308 3.762 6.141-6.629-.07-16.816-.195-23.207-.346zm33.369-30.697l.043.001c.64 0 1.17-.508 1.193-1.153.024-.66-.492-1.213-1.152-1.237l-17.793-.625c-.655-.005-1.212.493-1.235 1.152-.024.659.492 1.213 1.152 1.236l17.792.627zm-20.253 6.187c-.023.66.493 1.213 1.153 1.236l16.633.586.043.001c.64 0 1.17-.508 1.193-1.153.023-.661-.493-1.214-1.152-1.237l-16.633-.586c-.658-.015-1.213.494-1.237 1.153zm-2.106 8.078c-.024.661.493 1.214 1.152 1.237l9.493.333.043.001c.642 0 1.171-.508 1.194-1.154.022-.66-.493-1.212-1.153-1.236l-9.493-.333c-.658-.003-1.213.493-1.236 1.152z" sketch:type="MSShapeGroup" fill="#D4D8D9"/></svg>