<svg width="72" height="72" viewBox="0 0 72 72" xmlns="http://www.w3.org/2000/svg" xmlns:sketch="http://www.bohemiancoding.com/sketch/ns"><title>box-icon-dashboard-consumption</title><path d="M63.196 39h-37.391c-1.549 0-2.804-1.343-2.804-3s1.255-3 2.804-3h37.391c1.549 0 2.804 1.343 2.804 3s-1.255 3-2.804 3m0-15h-37.391c-1.549 0-2.804-1.343-2.804-3s1.255-3 2.804-3h37.391c1.549 0 2.804 1.343 2.804 3s-1.255 3-2.804 3m-48.946 30h-5.5c-1.519 0-2.75-1.343-2.75-3s1.231-3 2.75-3h5.5c1.519 0 2.75 1.343 2.75 3s-1.231 3-2.75 3m0-15h-5.5c-1.519 0-2.75-1.343-2.75-3s1.231-3 2.75-3h5.5c1.519 0 2.75 1.343 2.75 3s-1.231 3-2.75 3m0-15h-5.5c-1.519 0-2.75-1.343-2.75-3s1.231-3 2.75-3h5.5c1.519 0 2.75 1.343 2.75 3s-1.231 3-2.75 3m11.554 30c-1.549 0-2.804-1.343-2.804-3s1.255-3 2.804-3h37.391c1.549 0 2.804 1.343 2.804 3s-1.255 3-2.804 3h-37.391" sketch:type="MSShapeGroup" fill="#D4D8D9"/></svg>