<svg width="72" height="72" viewBox="0 0 72 72" xmlns="http://www.w3.org/2000/svg" xmlns:sketch="http://www.bohemiancoding.com/sketch/ns"><title>box-icon-xls</title><g sketch:type="MSArtboardGroup" fill="none"><path d="M57.475 22.299l-14.779-15.675c-.375-.397-.901-.623-1.454-.623h-24.16c-3.353 0-6.082 2.673-6.082 5.96v48.081c0 3.286 2.729 5.96 6.082 5.96h34.837c3.353 0 6.082-2.674 6.082-5.96v-36.426c0-.487-.187-.958-.525-1.316zm-4.697-.646h-10.444v-10.435l10.444 10.435zm-.822 40.435h-34.911c-1.173 0-2.128-.932-2.128-2.078v-48.018c0-1.145.955-2.078 2.128-2.078h22.623v13.456c0 .505 1.072.914 1.589.914h12.726l.1.106v35.62c0 1.145-.955 2.078-2.128 2.078z" fill="#D4D8D9" sketch:type="MSShapeGroup"/><rect fill="#D4D8D9" sketch:type="MSShapeGroup" x="34" y="36" width="28" height="15" rx="4"/><path d="M37.204 39.204h1.788l1.944 3.024 2.028-3.024h1.68l-2.832 4.128 3.036 4.44h-1.824l-2.136-3.276-2.172 3.276h-1.716l3.036-4.44-2.832-4.128zm8.52 0h1.5v7.272h4.356v1.296h-5.856v-8.568zm7.872 5.712c0 .328.056.608.168.84.112.232.268.422.468.57.2.148.43.256.69.324.26.068.542.102.846.102.328 0 .608-.038.84-.114.232-.076.42-.174.564-.294.144-.12.248-.258.312-.414.064-.156.096-.314.096-.474 0-.328-.074-.57-.222-.726-.148-.156-.31-.266-.486-.33-.304-.112-.658-.218-1.062-.318s-.902-.23-1.494-.39c-.368-.096-.674-.222-.918-.378s-.438-.33-.582-.522c-.144-.192-.246-.396-.306-.612-.06-.216-.09-.436-.09-.66 0-.432.09-.806.27-1.122.18-.316.418-.578.714-.786.296-.208.632-.362 1.008-.462.376-.1.756-.15 1.14-.15.448 0 .87.058 1.266.174.396.116.744.29 1.044.522.3.232.538.518.714.858.176.34.264.734.264 1.182h-1.5c-.04-.552-.228-.942-.564-1.17-.336-.228-.764-.342-1.284-.342-.176 0-.356.018-.54.054-.184.036-.352.096-.504.18-.152.084-.278.198-.378.342-.1.144-.15.324-.15.54 0 .304.094.542.282.714.188.172.434.302.738.39l.378.102.738.198.798.21.558.15c.28.088.524.208.732.36.208.152.382.326.522.522s.244.406.312.63c.068.224.102.448.102.672 0 .48-.098.89-.294 1.23-.196.34-.454.618-.774.834-.32.216-.684.374-1.092.474-.408.1-.824.15-1.248.15-.488 0-.948-.06-1.38-.18-.432-.12-.808-.304-1.128-.552-.32-.248-.576-.566-.768-.954-.192-.388-.292-.846-.3-1.374h1.5z" fill="#fff" sketch:type="MSShapeGroup"/></g></svg>