<svg width="72" height="72" viewBox="0 0 72 72" xmlns="http://www.w3.org/2000/svg" xmlns:sketch="http://www.bohemiancoding.com/sketch/ns"><title>box-icon-feedback</title><path d="M44.643 54.452l19.22-19.065c1.219-1.21 1.219-3.179 0-4.389l-19.735-19.574c-1.22-1.211-3.205-1.21-4.425 0l-30.88 30.629c-1.219 1.21-1.22 3.179 0 4.389l8.075 8.011h-7.599c-1.28 0-2.316 1.028-2.316 2.298v1.467c0 1.27 1.036 2.299 2.316 2.299h53.366c1.279 0 2.318-1.029 2.318-2.299v-1.467c0-1.27-1.038-2.298-2.318-2.298h-18.021zm-33.544-10.077c-.155-.158-.157-.415 0-.574l30.629-31.166c.156-.16.408-.157.564 0l19.574 19.919c.155.158.155.413.001.572l-24.448 24.875h-12.929l-13.392-13.625zm30.019-25.959l-2.812 22.327-22.058 2.488c-.817.092-1.404.828-1.312 1.645.087.76.73 1.322 1.478 1.322l.167-.009 23.222-2.619c.684-.076 1.225-.612 1.311-1.292l2.956-23.489c.103-.816-.475-1.561-1.291-1.664-.808-.096-1.559.477-1.662 1.291z" sketch:type="MSShapeGroup" fill="#D4D8D9"/></svg>