<svg width="72" height="72" viewBox="0 0 72 72" xmlns="http://www.w3.org/2000/svg" xmlns:sketch="http://www.bohemiancoding.com/sketch/ns"><title>box-icon-payment</title><path d="M11.288 15c-2.915 0-5.288 2.349-5.288 5.235v31.531c0 2.884 2.373 5.234 5.288 5.234h49.428c2.914 0 5.284-2.35 5.284-5.234v-31.531c0-2.886-2.37-5.235-5.284-5.235h-49.428zm-1.142 38c-.631 0-1.145-.496-1.145-1.1v-17.9h54v17.9c0 .604-.512 1.1-1.143 1.1h-51.712zm51.712-34c.631 0 1.143.485 1.143 1.085v4.915h-54v-4.915c0-.6.514-1.085 1.145-1.085h51.712zm-23.031 25c-.458 0-.826.447-.826.999 0 .553.368 1.001.826 1.001h15.349c.455 0 .825-.448.825-1.001 0-.552-.369-.999-.825-.999h-15.349z" sketch:type="MSShapeGroup" fill="#D4D8D9"/></svg>