<svg width="72" height="72" viewBox="0 0 72 72" xmlns="http://www.w3.org/2000/svg" xmlns:sketch="http://www.bohemiancoding.com/sketch/ns"><title>box-icon-payment-portal-hover</title><path d="M63.895 10h-55.789c-1.174 0-2.105.925-2.105 2.122v47.755c0 1.197.932 2.122 2.105 2.122h55.789c1.174 0 2.105-.925 2.105-2.122v-47.755c0-1.197-.932-2.122-2.105-2.122zm-45.693 31.584c.228.309.534.549.918.722.384.172.86.258 1.431.258.591 0 1.076-.108 1.455-.321.379-.215.682-.506.91-.871.217.365.514.656.887.871.373.213.866.321 1.479.321.57 0 1.044-.086 1.424-.258.378-.173.682-.413.909-.722.228-.309.388-.674.483-1.098.093-.423.141-.881.141-1.373v-3.968c0-.189-.085-.358-.25-.509-.166-.151-.393-.227-.684-.227-.26 0-.47.076-.629.227-.162.151-.242.321-.242.509v4.032c0 .574-.104.998-.311 1.27-.209.273-.54.408-.996.408-.467 0-.8-.136-.996-.408-.197-.272-.296-.696-.296-1.27v-4.047c0-.231-.098-.407-.296-.533-.197-.125-.399-.187-.607-.187-.093 0-.194.018-.304.054-.108.037-.21.084-.303.142-.093.058-.172.127-.234.211-.062.083-.093.173-.093.267v4.094c0 .574-.099.998-.297 1.27-.197.273-.529.408-.995.408-.467 0-.802-.136-1.003-.408-.203-.272-.304-.696-.304-1.27v-4.032c0-.189-.081-.358-.242-.509-.16-.151-.375-.227-.646-.227-.279 0-.505.076-.676.227-.17.151-.257.321-.257.509v3.968c0 .493.046.95.141 1.373.093.424.254.789.483 1.098zm12.54 0c.229.309.534.549.918.722.384.172.862.258 1.431.258.592 0 1.077-.108 1.455-.321.379-.215.683-.506.91-.871.218.365.514.656.887.871.374.213.866.321 1.479.321.57 0 1.045-.086 1.423-.258.38-.173.683-.413.912-.722.228-.309.388-.674.481-1.098.094-.423.141-.881.141-1.373v-3.968c0-.189-.083-.358-.249-.509-.167-.151-.394-.227-.685-.227-.259 0-.47.076-.63.227-.161.151-.241.321-.241.509v4.032c0 .574-.102.998-.311 1.27-.207.273-.539.408-.996.408-.466 0-.798-.136-.995-.408-.198-.272-.296-.696-.296-1.27v-4.047c0-.231-.099-.407-.297-.533-.195-.125-.399-.187-.607-.187-.093 0-.194.018-.303.054-.108.037-.21.084-.304.142-.093.058-.17.127-.234.211-.062.083-.093.173-.093.267v4.094c0 .574-.099.998-.296 1.27-.198.273-.529.408-.996.408-.466 0-.802-.136-1.003-.408-.201-.272-.304-.696-.304-1.27v-4.032c0-.189-.08-.358-.241-.509-.161-.151-.375-.227-.646-.227-.28 0-.505.076-.677.227-.17.151-.256.321-.256.509v3.968c0 .493.046.95.139 1.373.094.424.255.789.483 1.098zm12.541 0c.228.309.534.549.919.722.383.172.86.258 1.431.258.59 0 1.075-.108 1.454-.321.378-.215.683-.506.912-.871.217.365.512.656.887.871.373.213.865.321 1.478.321.57 0 1.045-.086 1.424-.258.378-.173.682-.413.909-.722.228-.309.39-.674.483-1.098.093-.423.141-.881.141-1.373v-3.968c0-.189-.083-.358-.249-.509-.167-.151-.396-.227-.685-.227-.259 0-.47.076-.63.227-.161.151-.241.321-.241.509v4.032c0 .574-.104.998-.311 1.27-.207.273-.54.408-.996.408-.467 0-.798-.136-.995-.408-.198-.272-.296-.696-.296-1.27v-4.047c0-.231-.099-.407-.296-.533-.198-.125-.4-.187-.608-.187-.093 0-.194.018-.304.054-.108.037-.21.084-.303.142-.093.058-.17.127-.234.211-.062.083-.093.173-.093.267v4.094c0 .574-.099.998-.296 1.27-.197.273-.529.408-.995.408-.468 0-.802-.136-1.005-.408-.203-.272-.304-.696-.304-1.27v-4.032c0-.189-.08-.358-.241-.509-.161-.151-.377-.227-.646-.227-.279 0-.506.076-.677.227-.172.151-.256.321-.256.509v3.968c0 .493.046.95.139 1.373.093.424.254.789.483 1.098zm12.649.98c.28 0 .51-.078.692-.235.181-.156.272-.334.272-.533v-.392c0-.199-.091-.377-.272-.533-.182-.157-.412-.235-.692-.235-.311 0-.558.078-.739.235-.182.156-.273.334-.273.533v.392c0 .199.091.377.273.533.181.157.428.235.739.235zm1.943-28.609c1.162 0 2.105.952 2.105 2.122 0 1.172-.944 2.122-2.105 2.122-1.162 0-2.105-.95-2.105-2.122 0-1.171.944-2.122 2.105-2.122zm-48.875 1.061c0-.641.39-1.061 1.105-1.061h39.789c.715 0 1.105.42 1.105 1.061v2.122c0 .642-.39 1.061-1.105 1.061h-39.789c-.715 0-1.105-.419-1.105-1.061v-2.122zm0 5.984h54v36h-54v-36z" sketch:type="MSShapeGroup" fill="#ED0088"/></svg>