<svg width="72" height="72" viewBox="0 0 72 72" xmlns="http://www.w3.org/2000/svg" xmlns:sketch="http://www.bohemiancoding.com/sketch/ns"><title>box-icon-site-internet-hover</title><path d="M6 36c0 16.571 13.433 30 30 30s30-13.429 30-30c0-16.567-13.433-30-30-30s-30 13.433-30 30zm22.335.219v-4.038h-7.265v-3.24l7.462-10.169h3.117v10.493h2.283v2.916h-2.283v4.038m17.427 0l-.393-2.019c-.687.897-1.448 1.524-2.283 1.882-.835.357-1.677.536-2.528.536-1.342 0-2.549-.237-3.62-.71-1.072-.474-1.976-1.126-2.712-1.956-.736-.831-1.301-1.807-1.694-2.928-.393-1.122-.589-2.33-.589-3.626 0-1.329.196-2.563.589-3.701.393-1.138.957-2.131 1.694-2.978.736-.847 1.64-1.512 2.712-1.994 1.072-.482 2.279-.723 3.62-.723.9 0 1.771.137 2.614.411.843.274 1.604.677 2.283 1.209.679.532 1.24 1.188 1.681 1.969.442.781.712 1.678.81 2.692h-3.682c-.229-.997-.671-1.745-1.325-2.243-.655-.498-1.448-.748-2.381-.748-.867 0-1.604.17-2.209.511-.605.341-1.096.798-1.473 1.371-.376.573-.65 1.225-.822 1.956-.172.731-.258 1.487-.258 2.268 0 .748.086 1.475.258 2.181.172.706.446 1.342.822 1.907.376.565.867 1.018 1.473 1.358.605.341 1.342.511 2.209.511 1.276 0 2.262-.328 2.958-.984.695-.656 1.1-1.608 1.215-2.854h-3.878v-2.916h7.364v9.62m-29.628 16.781v-12.852h2.826v10.476h6.264v2.376m2.772 0v-10.476h-3.852v-2.376h10.53v2.376h-3.852v10.476m5.328 0v-12.852h9.612v2.376h-6.786v2.754h6.228v2.196h-6.228v3.15h6.93v2.376m-23.339-23.735v-6.056h-.074l-4.443 6.056" sketch:type="MSShapeGroup" fill="#ED0088"/></svg>