<svg width="72" height="72" viewBox="0 0 72 72" xmlns="http://www.w3.org/2000/svg" xmlns:sketch="http://www.bohemiancoding.com/sketch/ns"><title>box-icon-dashboard-hover</title><path d="M63.189 64.993h-54.374c-1.554 0-2.812-1.256-2.812-2.806-.003-.007-.003-10.233 7.486-13.952 4.739-2.353 2.915-.442 8.732-2.85 5.817-2.404 7.195-3.242 7.195-3.242l.055-5.543s-2.179-1.662-2.856-6.877c-1.364.394-1.814-1.597-1.895-2.864-.073-1.224-.788-5.047.875-4.702-.34-2.554-.585-4.855-.465-6.075.417-4.282 4.55-8.754 10.915-9.081 7.488.325 10.454 4.796 10.869 9.078.122 1.22-.145 3.523-.487 6.071 1.664-.341.941 3.477.861 4.702-.074 1.267-.534 3.251-1.894 2.858-.68 5.213-2.859 6.864-2.859 6.864l.052 5.514s1.377.784 7.195 3.189c5.817 2.407 3.992.607 8.732 2.96 7.488 3.718 7.488 13.944 7.488 13.944-.001 1.557-1.26 2.813-2.813 2.813z" sketch:type="MSShapeGroup" fill="#ED0088"/></svg>