<svg width="72" height="72" viewBox="0 0 72 72" xmlns="http://www.w3.org/2000/svg" xmlns:sketch="http://www.bohemiancoding.com/sketch/ns"><title>box-icon-sup-coverage</title><path d="M65.744 34.933l-1.109 1.473-1.268.225-.106 2.188-.739.987-2.958-.731-1.004 3.82-.792.46-2.852.845 1.32 3.559-1.004.51.053 1.148-.845-.303-.739-.709-2.218-.169-2.43-.068-.528.17-2.06-.816-.845.409-.211 1.184-2.43-.709-.951.304-.37.875-.792.335-1.954 1.398-.634 1.382h-.581l-.37-.92-1.901-.066-.264-1.593h-.739l.106-2.021-1.743-1.434-2.535.137-1.69.274-1.426-1.828-1.162-.767-2.271-1.514-.317-.177-3.75 1.236.053 7.424-.739.099-1.056-1.529-.951-.57-1.69.402-.634.668-.106-.467.37-.805-.264-.742-1.69-.679-.687-1.817-.792-.519-.053-.661 1.426.209.053-1.507 1.215-.353 1.32.353.264-2.063-.264-1.336-1.479.073-1.268-.509-1.69.944-1.373.433-.739-.325.158-1.125-.951-1.431-1.056.074-1.268-1.448.845-1.733-.423-.456 1.162-2.506 1.532 1.357.158-1.708 3.063-2.533 2.271-.08 3.222 1.631 1.743.983 1.585-.983 2.324-.079 1.849 1.179.423-.666 2.06.079.37-1.066-2.377-1.639 1.426-1.175-.264-.654 1.373-.617-1.056-1.704.687-.842 5.493-.891.687-.598 3.697-.947 1.32-1.044 2.641.523.475 2.619 1.532-.595 1.849.849-.106 1.344 1.426-.125 3.644-2.367-.581.809 1.901 1.933 3.222 6.069.845-1.226 2.007 1.344 2.113-.631.845.473.687 1.291 1.004.504.634.925 1.901-.308.792 1.377z" sketch:type="MSShapeGroup" fill="#D4D8D9"/></svg>