<svg width="24" height="24" viewBox="0 0 24 24" xmlns="http://www.w3.org/2000/svg" xmlns:sketch="http://www.bohemiancoding.com/sketch/ns"><title>button-icon-menu</title><path d="M1.125 14c-.621 0-1.125-.671-1.125-1.5s.504-1.5 1.125-1.5h21.75c.621 0 1.125.671 1.125 1.5s-.504 1.5-1.125 1.5h-21.75zm21.75-6h-21.75c-.621 0-1.125-.671-1.125-1.5s.504-1.5 1.125-1.5h21.75c.621 0 1.125.671 1.125 1.5s-.504 1.5-1.125 1.5m-21.75 9h21.75c.621 0 1.125.672 1.125 1.5s-.504 1.5-1.125 1.5h-21.75c-.621 0-1.125-.672-1.125-1.5s.504-1.5 1.125-1.5" sketch:type="MSShapeGroup" fill="#ED0088"/></svg>