<svg width="18" height="18" viewBox="0 0 18 18" xmlns="http://www.w3.org/2000/svg" xmlns:sketch="http://www.bohemiancoding.com/sketch/ns"><title>icon-support</title><path d="M18 8.443c0-4.656-3.813-8.443-8.5-8.443-4.687 0-8.5 3.787-8.5 8.443 0 1.459.384 2.891 1.106 4.156v.955c0 .416.341.753.763.753h1.8c.421 0 .762-.337.762-.753v-4.986c0-.416-.341-.753-.762-.753h-1.8c-.114 0-.221.026-.319.071.286-3.566 3.293-6.381 6.95-6.381 3.66 0 6.669 2.82 6.951 6.389-.101-.049-.214-.079-.334-.079h-1.8c-.421 0-.763.337-.763.753v4.986c0 .416.341.753.763.753h.664c-.883 1.142-2.294 1.985-3.952 2.3-.162-.222-.424-.367-.721-.367h-1.449c-.491 0-.891.395-.891.88s.4.88.891.88h1.449c.411 0 .755-.278.857-.652 2.057-.39 3.78-1.522 4.739-3.04h.213c.421 0 .762-.337.762-.753v-.928c.732-1.271 1.121-2.714 1.121-4.183" sketch:type="MSShapeGroup" fill="#9E9EA8"/></svg>