<svg width="18" height="18" viewBox="0 0 18 18" xmlns="http://www.w3.org/2000/svg" xmlns:sketch="http://www.bohemiancoding.com/sketch/ns"><title>icon-twitter</title><path d="M17.387 3.618c-.639.275-1.327.46-2.049.543.737-.427 1.302-1.103 1.569-1.909-.689.395-1.452.683-2.265.838-.65-.671-1.578-1.09-2.604-1.09-1.97 0-3.567 1.545-3.567 3.451 0 .27.031.534.092.786-2.965-.144-5.593-1.517-7.353-3.606-.307.51-.483 1.103-.483 1.735 0 1.198.63 2.254 1.587 2.873-.584-.018-1.135-.173-1.616-.432v.044c0 1.672 1.23 3.067 2.862 3.384-.299.079-.614.121-.94.121-.23 0-.453-.022-.671-.062.454 1.371 1.771 2.369 3.332 2.397-1.221.926-2.759 1.478-4.43 1.478-.288 0-.572-.016-.851-.048 1.579.979 3.454 1.551 5.468 1.551 6.561 0 10.149-5.259 10.149-9.819l-.01-.447c.697-.486 1.302-1.094 1.78-1.787" sketch:type="MSShapeGroup" fill="#9E9EA8"/></svg>