<svg width="72" height="72" viewBox="0 0 72 72" xmlns="http://www.w3.org/2000/svg" xmlns:sketch="http://www.bohemiancoding.com/sketch/ns"><title>box-icon-business-plans-hover</title><path d="M47.965 30.733c-.095-.297-.364-.5-.671-.507l-7.991-.163-2.623-7.575c-.101-.292-.374-.488-.679-.488-.306 0-.578.196-.679.488l-2.623 7.575-7.992.163c-.307.007-.577.21-.671.507-.094.297.007.622.253.809l6.364 4.844-2.312 7.67c-.09.297.016.619.263.803.247.184.582.189.835.013l6.563-4.585 6.564 4.585c.123.086.266.129.408.129.15 0 .299-.047.426-.141.247-.184.352-.506.263-.803l-2.314-7.67 6.364-4.844c.246-.187.348-.512.254-.809zm18.009 3.722c-.071-.219-.273-.369-.503-.374l-5.994-.121-1.967-5.599c-.076-.216-.281-.361-.51-.361-.229 0-.434.145-.51.361l-1.967 5.599-5.994.121c-.23.005-.433.155-.503.374-.071.22.005.459.19.598l4.773 3.58-1.734 5.669c-.067.22.012.458.197.593.185.136.437.14.626.009l4.922-3.389 4.923 3.389c.093.063.199.095.306.095.112 0 .224-.035.319-.104.185-.136.264-.374.197-.593l-1.735-5.669 4.773-3.58c.184-.138.261-.378.19-.598zm-42 0c-.071-.219-.273-.369-.503-.374l-5.994-.121-1.967-5.599c-.076-.216-.281-.361-.51-.361-.229 0-.434.145-.51.361l-1.967 5.599-5.994.121c-.23.005-.433.155-.503.374-.071.22.005.459.19.598l4.773 3.58-1.734 5.669c-.067.22.012.458.197.593.185.136.437.14.626.009l4.922-3.389 4.923 3.389c.093.063.199.095.306.095.112 0 .224-.035.319-.104.185-.136.264-.374.197-.593l-1.735-5.669 4.773-3.58c.184-.138.261-.378.19-.598z" sketch:type="MSShapeGroup" fill="#ED0088"/></svg>