<svg width="72" height="72" viewBox="0 0 72 72" xmlns="http://www.w3.org/2000/svg" xmlns:sketch="http://www.bohemiancoding.com/sketch/ns"><title>box-icon-business-services-hover</title><path d="M47.359 17.983c.058-1.236-.139-2.582-.883-3.841-1.6-2.71-5.129-4.104-10.491-4.14-5.341-.051-8.831 1.303-10.441 3.983-.782 1.301-.973 2.71-.895 3.998h-10.698c-4.383 0-7.95 3.535-7.95 7.88v28.255c0 4.345 3.568 7.882 7.95 7.882h44.098c4.384 0 7.951-3.537 7.951-7.882v-28.255c0-4.345-3.568-7.88-7.951-7.88h-10.689zm-18.91-2.46c.948-1.679 3.526-2.548 7.509-2.522 4.012.03 6.636.951 7.589 2.667.401.72.493 1.546.438 2.333h-15.962c-.072-.86.012-1.745.426-2.478zm32.551 38.54c0 1.621-1.334 2.938-2.976 2.938h-44.051c-1.639 0-2.973-1.316-2.973-2.938v-28.125c0-1.62 1.334-2.938 2.973-2.938h44.051c1.642 0 2.976 1.318 2.976 2.938v28.125z" sketch:type="MSShapeGroup" fill="#ED0088"/></svg>