<svg width="72" height="72" viewBox="0 0 72 72" xmlns="http://www.w3.org/2000/svg" xmlns:sketch="http://www.bohemiancoding.com/sketch/ns"><title>box-icon-payment-atm-hover</title><path d="M20.876 7h-12.751c-1.174 0-2.125.954-2.125 2.126v12.749c0 1.173.951 2.125 2.125 2.125h12.751c1.174 0 2.124-.952 2.124-2.125v-12.749c0-1.173-.95-2.126-2.124-2.126zm-10.876 4h9v9h-9v-9zm10.876 17h-12.751c-1.174 0-2.125.954-2.125 2.126v12.75c0 1.173.951 2.124 2.125 2.124h12.751c1.174 0 2.124-.951 2.124-2.124v-12.75c0-1.173-.95-2.126-2.124-2.126zm-10.876 4h9v9h-9v-9zm10.876 17h-12.751c-1.174 0-2.125.952-2.125 2.125v12.749c0 1.174.951 2.125 2.125 2.125h12.751c1.174 0 2.124-.951 2.124-2.125v-12.749c0-1.173-.95-2.125-2.124-2.125zm-10.876 4h9v9h-9v-9zm31.876-46h-12.751c-1.174 0-2.125.954-2.125 2.126v12.749c0 1.173.951 2.125 2.125 2.125h12.751c1.173 0 2.124-.952 2.124-2.125v-12.749c0-1.173-.951-2.126-2.124-2.126zm-10.876 4h9v9h-9v-9zm10.876 17h-12.751c-1.174 0-2.125.954-2.125 2.126v12.75c0 1.173.951 2.124 2.125 2.124h12.751c1.173 0 2.124-.951 2.124-2.124v-12.75c0-1.173-.951-2.126-2.124-2.126zm-10.876 4h9v9h-9v-9zm10.876 17h-12.751c-1.174 0-2.125.952-2.125 2.125v12.749c0 1.174.951 2.125 2.125 2.125h12.751c1.173 0 2.124-.951 2.124-2.125v-12.749c0-1.173-.951-2.125-2.124-2.125zm-10.876 4h9v9h-9v-9zm32.874-46h-12.748c-1.174 0-2.125.954-2.125 2.126v12.749c0 1.173.951 2.125 2.125 2.125h12.748c1.174 0 2.126-.952 2.126-2.125v-12.749c0-1.173-.952-2.126-2.126-2.126zm-10.874 4h9v9h-9v-9zm10.874 17h-12.748c-1.174 0-2.125.954-2.125 2.126v12.75c0 1.173.951 2.124 2.125 2.124h12.748c1.174 0 2.126-.951 2.126-2.124v-12.75c0-1.173-.952-2.126-2.126-2.126zm-10.874 4h9v9h-9v-9zm10.874 17h-12.748c-1.174 0-2.125.952-2.125 2.125v12.749c0 1.174.951 2.125 2.125 2.125h12.748c1.174 0 2.126-.951 2.126-2.125v-12.749c0-1.173-.952-2.125-2.126-2.125zm-10.874 4h9v9h-9v-9z" sketch:type="MSShapeGroup" fill="#ED0088"/></svg>