<svg width="72" height="72" viewBox="0 0 72 72" xmlns="http://www.w3.org/2000/svg" xmlns:sketch="http://www.bohemiancoding.com/sketch/ns"><title>box-icon-dashboard-bonus</title><path d="M54.863 45l-5.098-1-3.059 4-9.176-16h-3.059l-9.176 16-3.059-4-5.098 1 7.137-13h-14.275v34h52v-34h-14.275l7.137 13zm-.863-26c1.02.141 1.502-2.344 2-4-1.053-8.978-10.188-9-10-9-4.711 0-7.883 3.692-10 8-2.117-4.308-5.289-7.961-10-8 .188.039-8.947.015-10 9 .498 1.649.98 4.141 2 4h-12v11h60v-11h-12zm-24 0c-2.975 0-5.249-.45-7-1-1.568-1.09-1.974-1.989-2-3 .333-4.29 3.856-4.948 5-5 3.705.041 6.355 4.481 8 9h-4zm19-1c-1.751.52-4.023 1-7 1h-4c1.653-4.532 4.333-8.982 8-9 .501.011 4.636.349 5 5-.026 1.002-.435 1.877-2 3z" sketch:type="MSShapeGroup" fill="#D4D8D9"/></svg>