<svg width="72" height="72" viewBox="0 0 72 72" xmlns="http://www.w3.org/2000/svg" xmlns:sketch="http://www.bohemiancoding.com/sketch/ns"><title>box-icon-site-roaming-hover</title><path d="M33.302 18.463l-.085.085-.032.107-.038.095c-.05.062-.157.139-.22.18-.064.044-.25.013-.463.044h-.003l-.437.102c-.159.036-.426.072-.461-.018l.015-.121c.073-.087.245-.123.347-.195.127-.085.105-.098.061-.116-.058-.028-.044-.051-.003-.079l.163-.091.102-.087.228-.026.383-.184v-.032l.013-.025c.054-.078.048-.179-.012-.25l-.008-.025c-.001-.035.03-.147.079-.158l.001-.003.037.028.015.004.008-.004.034-.108v-.025l-.076-.014-.009-.081.052-.053.006-.004h.039l.063-.01.01-.008.173-.193.068-.071.094-.013.244.032c.031.011.108.045.016.105l-.125.074-.049.095v.018l.015.007c.073-.003.465-.021.378.106l-.091.182c-.056.151-.062.323-.017.482l.014.13-.014.134.039.126.001.011.002.004.02-.004.112-.004.023.012s.087.196.07.221l-.001.003.006.088.05.102-.085.083-.011.015.119-.014c.062-.036.283.026.293.026h.001c.12 0 .102.234.099.256l-.059.174-.147.099-.044-.01-.01-.006-.02-.003-.008.022c.008.084.055.176.125.218l.004.03c.005.084-.193.179-.193.179h-.002l-.194-.028-.155-.116-.163-.017-.136-.036-.247.084-.205-.054c-.104.007-.138.11-.21.167h-.025c-.052 0-.148-.063-.2-.028l-.043.032-.057-.011.004-.059.09-.095c.088-.095.203-.152.327-.165h.119c.074.007.127-.032.182-.074l.012-.042-.035-.025-.06.025-.016.011h-.073l-.015-.011c-.048-.053-.111-.092-.181-.112l-.216.011c-.049-.025-.04-.099-.03-.113l.072-.021c.055-.011.231-.073.256-.105.022-.025.08-.204.011-.201l-.086.042.005-.007.038-.022.098-.011v-.003l.005-.051-.114-.016-.004.003.044.088h.001c.096 0 .2-.098.272-.176.07-.074.096-.292.065-.391l-.001-.013-.002-.025-.031-.079zm-.154-.34l-.13-.005-.076.015.027-.034.061-.049.076-.032.028.004.013.028.001.073zm2.41-12.008c-16.567 0-30 13.433-30 30 0 16.571 13.433 30 30 30s30-13.429 30-30c0-16.567-13.433-30-30-30zm-.158 56c-7.653 0-14.539-3.274-19.321-8.487l.211-.101c-.005-.182-.044-.363-.11-.534l-.189-.43c-.222-.483.773-.563 1.051-1.013.02-.044.188-.063.389.08.158.112.39-.15.37-.245-.067-.294-.067-.34-.03-.61.062-.457-.065-1.59-.118-1.744-.182-.519-.22-.781-.224-.905-.002-.093.246-.163.292-.315.09-.312.622-.886.786-1.163.143-.243.257-.511.22-.792-.076-.621-2.071-2.896-2.635-3.317-.444-.334-.766-.334-.766-.334.026-.281-.083-.557-.292-.741-.078-.069-.137-.164-.194-.258-.079-.127-.221-.203-.371-.203-.149 0-.369.076-.369.203.186-.443.143-.465-.21-.899-.189-.232-.213-.209.017-.635.033-.585-1.113-2.442-2.128-3.581-.033-.038-.081-.056-.141-.044-.104-.099-.606-1.937-.716-2.366l.012-.058c.088-.109.125-.247.097-.382l-.073-.356c-.013-.21-.209-.381-.246-.355-.055.04-.114.044-.164.021-.053-.021-.091-.068-.104-.131-.042-.228-.241-.392-.473-.392l-.413-.018c.86-5.461 3.424-10.358 7.132-14.137l.012.375c.312.087.29.018.558-.306.155-.186.438-.254.594-.309.156-.055.418-.08.418-.08.149-.029.584.069.709-.033l.032-.206c.061-.087.11-.183.15-.281.034-.082.139-.108.214-.156.132-.08.006-.08-.02-.12-.02-.033.002-.153.05-.164l.002.004c.069.063.165.087.255.065.081-.018.108-.044.132-.094l.08-.065.002-.004c.214-.512-.738-.221-.738-.221-.039-.076.503-.247.588-.273l.003.004.106-.011c.257-.102.617.026.617.28 0 .068.119.123.189.141.086.023.186.048.276.015l.991-.195.008-.004c.501-.222.527-1.333 1.21-1.941l.216-.163c.127-.08.208-.2.296-.316l.138-.16c.056-.059.069-.149.025-.218-.044-.072-.133-.109-.213-.08-.057.019-.166.055-.197.004l-.002-.058.096-.16-.157-.179c2.21-1.144 4.604-1.987 7.125-2.466-.004.149-.025.283-.058.294-.214.072-.456.076-.636.229l-.011.055.052.022.259-.095.056.041-.018.025-.237.084-.02.044-.005.134.001.197c-.007.007-.762.734-1.049.734h-.002c-.342 0-.66-.045-.753.036-.097.076-.198.045-.31.099-.23.116-.435.262-.571.408-.07.076.052.075.145.115l-.034.021c-.38.051-.705.474-.803.616v.084l.002.002c-.177.174-.193.188-.323.449l.007.051.243.064-.057.149.031.023c.035.007-.104.145-.123.175-.033.047.009.17.083.167.073 0 .119-.048.187-.124 0 0 .186-.105.313-.21.124-.102.372-.131.464-.302.05-.094.141-.156.215-.171l.077.04c.011.044.586-.21.566-.309-.018-.094.035-.102.095-.076l.105-.018c.171-.142.433-.316.651-.262l.155-.022c.218-.123.242-.065.191-.044-.059.022-.217.08-.184.131l.038.011c.094-.037.19-.055.291-.059.141 0 .345.019.529-.078l.024.026h.005c.434 0 .615-.258.706-.196.028.022.044.196.041.196h.002l.233-.168.332-.01c-.062.16 2.685-.47 4.422-1.905.456-.378.962-.741 1.468-1.058 2.943.203 5.749.88 8.344 1.974-.044.091-.16.115-.167.145-.038.093.211.215.284.288.037.04.037.104 0 .148-.125-.03-.255-.001-.351.083-.088.079-.222.134-.299.163l-.125.075-.131.004c-.171.063-.271.389-.234.509l-.029.138c-.04.051-.11.069-.167.048-.037-.011-.14.076-.088.112.059.044-.022.076-.081.116l-.102.015c-.212-.062-.197-.116-.263.048l-.125.214c-.032.044-.029.101.008.138.313.298-.132.251-.292.179-.146-.066-.234.178.037.181.072 0 .145.03.192.084.136.152-.179.101-.376.036-.164-.058-.321-.145-.459-.254-.088-.069-.125-.188-.088-.291.043-.105.143-.175.255-.171.16.004.3-.116.314-.277.022-.16-.088-.305-.241-.337-.39-.08-.824-.033-1.182-.196l-.646-.221-.041-.16-.343-.065c-.07-.015-.277.018-.566.108-.62.197-1.208.804-1.208.804l-.231.295-.334.352c-.047.04-.124.087-.124.149v-.004l.031-.003c-.06.018-.091.279-.107.34-.075.266-.278.359-1.412 1.351h.004c-.333 0-.54.259-.522.619.018.359.262.563.607.668.429.131.527-.396 1.012-.25.182.055.329.165.394.343.078.217.187.334.196.619.098.093.382.302.415.156.08-.341.429-.119.578-.407.128-.243-.061-.499.029-.746l.004-.004c.118-.288.146-.604.088-.91-.029-.141.007-.356.081-.767.026-.16.343-.243.416-.363.132-.203-.088-.592.241-.665.161-.037.456.04.496.207.011.062-.003.123-.043.171l-.216.407c-.163.254-.2.57-.095.857.091.244.236.465.474.487.07.004.135-.015.193-.051l.34-.157c.28-.098.58-.09.872-.09l.055.09-.026.095c-.346.309-.417.112-.78.178-.125.026-.223.131-.241.254-.015.116-.087.229.008.288l-.102.058v.004c0 .109.05.207-.052.251-.077.033-.098.029-.172-.004-.058-.026-.093-.022-.143.014-.107.069-.055.12-.076.211-.03.146-.016.298.035.439.08.232-.348.651-.523.618-.358-.065-.72.119-1.042.287-.145.079-.333.068-.457.068h-.002l-.11-.306c-.022-.014-.577.155-.6.163l-.077-.04-.041-.08-.001-.012c-.019-.16-.74-.142-.177-.764l.002-.005c.058-.062.086-.335.071-.423-.022-.142.007-.518-.126-.518h-.002c-.294.992-.433.916-.38 1.334.036.467.03.481-.143.477-.071-.004.031.118.031.173v.004c-.997 0-.386 0-.548.015-.071.007-.244.044-.287.098l-.06.022-.083.083c-.129.029-.257.09-.354.178-.224.199-.345.287-.578.418-.166.091-.314.207-.435.349-.052.058-.165.124-.424.269l-.049.065c-.012.055-.059.098-.115.105-.232.033-.298.168-.431.08-.068-.048-.121.298-.104.298h.002l-.032-.019-.151-.014c-.158.007-.317-.072-.459-.146l-.041-.023c-.231.072-.368.336-.31.34.398.044.393.173.551.274.189.12.099.579.387.579h.004c.037 0 .066.228.073.265l-.029.037c-.088.058-.144.133-.157.234-.027.192-.007.392-.137.555-.055.069-.18.195-.328.138-.157-.059-.327-.096-.496-.104-.696-.032-1.104-.183-1.308-.284-.149-.076-.334-.041-.443.086l-.164.007c-.104.007-.175.101-.151.203.055.225.055.453-.21 1.126l-.038.087c-.086.16-.396.472-.32.557l.033.014c.065 0 .121.04.144.102l.01.16c-.023.087-.118.392-.08.468l.107.087.171.109c.042.025.184-.037.268-.072.062-.026.101-.044.237.116.13.142.029.479.299.487.074 0 .116-.073.134-.113.02-.048.02-.048.538-.16.23-.051.454.094.685.022l.367-.334.309-.029c.064-.037.019-.229.019-.288v-.003c0-.091.205-.236.163-.371l.022-.131c.011-.055.195-.152.294-.374l.038-.051c.318-.288.751-.356 1.113-.56.316-.182.096-.669.47-.817.345-.135.603.341.959.138.378-.21.848-.479.946-.483.103-.007.196.022.274.055.119.055.219.142.289.255.343.548.995.781 1.392 1.271l.478.36c.185.174.08-.052.24.229l.004.003c.077.124.219.337.088.393-.092.04-.092.068-.092.098 0 .072-.058.137-.015.21.015.022.059.083.161.037.117-.059.073-.08.121-.175l.109-.244.128-.072c.029-.164-.084-.218-.159-.25-.045-.026-.136-.066-.081-.204l.004-.011.003-.003c.055-.124.197-.179.321-.124.092.037.161.055.193.149l.011.048.016.094c.021.022.266.004.292-.04l.19-.135v.208h-.349l.012-.12c-.226-.346-.636-.428-.957-.609l-.058-.124c-.007-.08-.074-.152-.153-.152-.197.004-.38-.101-.496-.261l-.672-.98-.079-.13c-.044-.079-.006-.178.077-.206l.016-.009c.131-.036.27.014.346.127.036.055.071.12.14.116l.124.065 1.053.839v.004s.202.018.351.116l.16.033c.058-.004.143.015.187.051.175.142.305.345.327.566l.032.259c.007.083.055.16.126.206l.091.076.089.127.169.168.004-.087.043-.075h.004l.121.075c.125.008.313.13.459.061l.161-.136h.003c.351 0-.084-.244-.099-.4l.059-.087.128.027.085.018.051-.094c.04-.182.225-.241.417-.241.152 0 .305.042.44.114l.183.045c.12 0 .236-.267.331-.335.044-.034-.058-.038-.284-.038h-.007c-.096 0-.146.35-.125.452.044.199.616.505.339.763l.142.114v.003l.216.309c.277.465 1.136.614 1.216.415l-.033-.004c.041-.105.143-.16.248-.116.212.08.393.236.642.214.139-.015.235-.064.316-.138.23-.196.515-.337.815-.337l.006.003v.007c-.15.887.841 1.872-.137 2.675-.076.065-.215.094-.314.112-.883.157-1.777.3-2.661.357-.51.037-.587.132-.744.132h-.007c-.174 0-.208-.277-.466-.335-.161-.036-.584-.789-1.168-.316-.168.134-.271.239-.263.341.072 1.449-1.722.35-1.855.19-.204-.243-.478-.44-.784-.528-.336-.098-.742-.237-1-.371-.194-.101-.429-.167-.529-.171-.037-.008-.053-.184.056-.297.29-.291.38-.408.288-.564l-.295-.644-.002-.004c-.077-.098-.195-.149-.317-.142-3.624.229-4.406.334-5.121.676-.062.03-.191.091-.394.004-.154-.069-.328-.076-.488-.022-.236-.153-.542-.138-.759.04l-1.181.952c-.121.097-.224.214-.307.344-.213.334-.261.557-.255.677.02.371-.668 1.132-1.664.976v.056c0 .105-.441.199-1.756 2.02-.719 1.003-.699 1.003-.552 1.279.079.149.249.453.129 1.282l-.025.164-.018.077-.503 1.671c-.143.465-.049.974.249 1.362l.004.008.112.206.051.105c.108.243.259 1.609.665 2.23.064.099.139.187.222.27l1.277 1.25c.225.221.672.37.981.428.912.175 1.881.183 2.779.521l.147.04c1.039.068 1.892-.789 2.898-.861.237-.015.718.138.841.839.089.524.9.356 1.281.246.173-.051.189-.043.356.027l-.167.003v.004c0 .112.284.196.397.188l.092-.003c.07-.008.236.025.272.079.208.313.236.516.236.665v.004l.006.004-.006.051v.007l-.086.113c-.106.77-.073 1.126-.431 1.413l-.106.117c.39.792 1.226 1.191 1.226 1.191.123.131.849 1.384.926 1.937.119.839.117.68.139.715.371.606.045.894-.181 1.01l-.125.098-.083.195c-.039.052-.469 1.306-.469 1.566 0 .239.366.468.504.661l.883 1.247.036.065c.311.388-.171.937.107 1.329.092.127.31.64.427.719.183.124.943 1.221.715 1.406l-.011.101c.07.197.99.506 1.331.364.504-.218 1.567-.385 2.001-.381.595.003 3.474-2.207 3.248-2.916l-.007-.187h.003c.336 0 .916-.567.916-.615v-.003c0-.28.356-.513.356-.697.008-.498.34-.967.742-1.266.346-.253.893-.613 1.629-1.147.46-.331.716-.567.677-1.995-.033-1.312-.259-2.335-.335-2.558-.114-.309-.075-.367.049-.595.369-.681.872-1.279 1.226-1.97.562-1.096 1.254-1.743 1.633-2.092l.048-.048c.683-.798 1.077-1.877 1.325-2.891l.204-.629c.044-.16.117-.298.197-1.126l-.055-.408c.033-.544-.157-.064-.318.015-.409.192-.185.124-.365.24-.088.051-.744.283-.825.359-.095.084-.182.183-.314.196-.817.102-.956.12-1.101-.011-.136-.123-.223-.28-.256-.461-.04-.188-.14-.367-.285-.501-.772-.723-2.299-1.191-2.66-3.15-.056-.295-2.222-3.49-2.668-4.119-.047-.069-.066-.322-.045-.322h.004c.084 0 .421.675.625.886.059.062.143.127.211.075.081-.059.026-.13.044-.417 0-.079.121-.076.136.003.029.178.113.346.244.473.292.277.639.792.868 1.151.143.222.337.401.562.532.33.186.43.487.665 1.203.278.85 1.278 1.054 1.646 1.82.31.646.397 1.385.792 1.998l.007.011c.051.069.139.102.222.084.602-.142 1.302-.895 1.478-1.029.366-.284.629-.497.825-.657.263-.222.445-.524.525-.858.067-.284.5-.531.628-.531.34-.003.189-.439.328-.635.15-.203.161-.437.337-.618.051-.062.117-.109.189-.142l.015-.022c.043-.217-.096-.233-.096-.451l.11.098h-.257v-.377c0-.679.482-1.254-.12-1.537-.236-.113-.462.065-.683-.127l.027-.003c-.124-.106-.489-.146-.649-.117-.161.033.428.138-.569.283v.004c0 .127.038.218-.102.24-.225.033-.09.022-.261.207-.366-.186-.626-.214-1.92-2.133-.384-.574.29-.865.29-.654v.245h.174c.16 0 .814.741 1.346 1.035.182.102.73.174.828-.008.369-.673.636-.216.687-.107.273.573 1.029.057 1.201.067.365.019.336-.065 1.387-.662.423-.236.923-.276 1.371-.101l.067.027c.755 2.431 1.16 5.013 1.16 7.687 0 14.383-11.711 26.041-26.158 26.041zm3.216-35.696l.075-.019c.075-.007.319.183.401.224l.081.033.137.113.085.015c.028-.004.071-.015.116-.18l-.045-.165.09-.256-.035-.069-.016.003-.062.023-.123.01-.098.059-.101-.015-.129.063-.176-.081-.1.037-.06-.033c-.049-.019-.106.183-.096.205l.054.033h.003z" sketch:type="MSShapeGroup" fill="#ED0088"/></svg>