<svg width="72" height="72" viewBox="0 0 72 72" xmlns="http://www.w3.org/2000/svg" xmlns:sketch="http://www.bohemiancoding.com/sketch/ns"><title>box-icon-site-plans</title><path d="M56 18l-11-12c-.237.182-.656 0-1 0h-26c-1.279 0-2 .73-2 2v55c0 1.272.721 2 2 2h36c1.28 0 2-.728 2-2v-44c0-.753-.163-1.158 0-1zm-3 44h-34v-53h24l10 10.192v42.808zm-26.932-24.94v9.951c0 1.789 1.444 3.239 3.224 3.239h.879v-9.272c-.913-1.091-1.522-2.439-1.722-3.918h-2.38zm6.124 13.189h2.816v-6.605c-1.016-.136-1.966-.471-2.816-.966v7.571zm-6.124-25.173v9.953h2.38c.2-1.48.809-2.827 1.722-3.918v-9.273h-.879c-1.779 0-3.224 1.448-3.224 3.238zm16.334-3.238v9.999c.616.941 1.029 2.025 1.183 3.192h2.38v-9.953c0-1.789-1.442-3.238-3.223-3.238h-.341zm-5.375 28.411h3.351v-7.913c-.976.686-2.118 1.142-3.351 1.308v6.605zm3.351-28.411h-3.351v6.605c1.234.166 2.376.622 3.351 1.309v-7.914zm-5.371 0h-2.816v7.571c.85-.495 1.8-.829 2.816-.966v-6.605zm7.394 18.413v9.998h.341c1.781 0 3.223-1.449 3.223-3.239v-9.951h-2.38c-.155 1.166-.567 2.251-1.183 3.192zm-1.012-5.862c-.214-.704-.563-1.346-1.011-1.901-.827-1.025-2.003-1.747-3.351-1.994-.328-.058-.665-.095-1.01-.095-.347 0-.682.038-1.01.095-1.077.198-2.048.702-2.816 1.421-.396.369-.736.793-1.01 1.261-.33.562-.572 1.186-.691 1.853-.06.329-.096.667-.096 1.015 0 .346.036.685.096 1.015.119.666.361 1.289.691 1.852.274.468.614.892 1.01 1.26.768.719 1.74 1.224 2.816 1.422.328.06.663.095 1.01.095.344 0 .682-.035 1.01-.095 1.348-.248 2.524-.971 3.351-1.994.447-.555.797-1.199 1.011-1.901.066-.207.111-.422.151-.639.059-.331.096-.669.096-1.015 0-.348-.037-.686-.096-1.015-.04-.219-.086-.432-.151-.64z" sketch:type="MSShapeGroup" fill="#D4D8D9"/></svg>