<svg width="72" height="72" viewBox="0 0 72 72" xmlns="http://www.w3.org/2000/svg" xmlns:sketch="http://www.bohemiancoding.com/sketch/ns"><title>box-icon-sup-centres</title><path d="M43.178 50.918l-1.174 2.39c6.309.793 10.121 2.798 10.121 4.282 0 1.888-6.153 4.631-15.793 4.631-9.641 0-15.79-2.743-15.79-4.631 0-1.755 5.313-4.239 13.794-4.584l1.992 3.997 13.694-27.463h-.015c1.349-2.312 2.135-4.987 2.135-7.848 0-8.666-7.079-15.692-15.808-15.692-8.728 0-15.808 7.026-15.808 15.692 0 2.86.786 5.536 2.129 7.848h-.011l10.466 21.005c-7.939.508-15.11 2.907-15.11 7.046 0 4.696 9.222 7.153 18.332 7.153 9.109 0 18.332-2.458 18.332-7.153 0-3.496-5.113-5.749-11.486-6.672zm-13.485-31.158c0-3.64 2.972-6.595 6.639-6.595 3.67 0 6.642 2.955 6.642 6.595 0 3.639-2.971 6.59-6.642 6.59-3.667 0-6.639-2.951-6.639-6.59z" sketch:type="MSShapeGroup" fill="#D4D8D9"/></svg>