<svg width="72" height="72" viewBox="0 0 72 72" xmlns="http://www.w3.org/2000/svg" xmlns:sketch="http://www.bohemiancoding.com/sketch/ns"><title>box-icon-business-devices</title><path d="M47 6h-21.998c-2.752 0-5.001 2.252-5.001 5v50.002c0 2.75 2.25 4.998 5.001 4.998h21.998c2.75 0 5-2.248 5-4.998v-50.002c0-2.748-2.25-5-5-5zm-14.001 4h6.001c.551 0 1.001.446 1.001.999 0 .553-.45 1.001-1.001 1.001h-6.001c-.55 0-.998-.449-.998-1.001 0-.553.448-.999.998-.999zm3 54c-1.656 0-2.999-1.342-2.999-2.999 0-1.658 1.342-3.001 2.999-3.001 1.659 0 3.001 1.343 3.001 3.001 0 1.657-1.342 2.999-3.001 2.999zm-13.999-48h28v40h-28v-40z" sketch:type="MSShapeGroup" fill="#D4D8D9"/></svg>