<svg width="72" height="72" viewBox="0 0 72 72" xmlns="http://www.w3.org/2000/svg" xmlns:sketch="http://www.bohemiancoding.com/sketch/ns"><title>box-icon-payment-express-hover</title><path d="M10.145 53h51.712c.631 0 1.143-.861 1.143-1.91v-31.09c-.049-.56-.542-1-1.143-1h-51.712c-.601 0-1.096.44-1.142 1l-.003 31.09c0 1.049.514 1.91 1.145 1.91zm-4.145-32.765c0-2.886 2.373-5.235 5.288-5.235h49.428c2.914 0 5.284 2.349 5.284 5.235v31.531c0 2.884-2.37 5.234-5.284 5.234h-49.428c-2.915 0-5.288-2.35-5.288-5.234v-31.531zm40.708 25.781c-2.151 1.377-4.285 1.955-6.342 1.713-3.741-.441-5.862-3.41-5.95-3.535l-6.544-8.399-.029-.038c-1.669-2.538-2.208-4.913-1.602-7.051.896-3.166 3.975-4.596 4.107-4.654.259-.119.563-.025.718.214l3.965 6.195c.148.23.119.533-.07.731-1.963 2.051-1.165 3.282-1.13 3.333.015.02 2.746 3.603 4.051 5.199.165.2.346.308.574.333.827.097 2.001-.875 2.345-1.226.114-.114.272-.176.433-.17.157.007.311.083.415.209l5.191 6.27c.109.127.156.298.132.466-.026.17-.122.317-.264.408z" sketch:type="MSShapeGroup" fill="#ED0088"/></svg>