<svg width="72" height="72" viewBox="0 0 72 72" xmlns="http://www.w3.org/2000/svg" xmlns:sketch="http://www.bohemiancoding.com/sketch/ns"><title>box-icon-business-special-hover</title><path d="M65.99 33.046c-.062-.63-.415-1.197-.957-1.531l-4.706-2.895 2.305-5.019c.265-.577.245-1.244-.055-1.804-.3-.562-.844-.949-1.471-1.051l-5.456-.872.209-5.521c.025-.635-.249-1.244-.74-1.65-.49-.403-1.142-.551-1.76-.404l-5.374 1.282-1.92-5.177c-.222-.596-.708-1.056-1.315-1.241-.608-.183-1.266-.074-1.783.299l-4.473 3.239-3.757-4.049c-.432-.467-1.056-.704-1.69-.642-.632.064-1.199.418-1.531.96l-2.895 4.706-5.021-2.306c-.575-.263-1.244-.243-1.805.055-.56.297-.948.844-1.049 1.471l-.873 5.453-5.521-.205c-.628-.034-1.244.249-1.647.742-.403.49-.552 1.14-.405 1.759l1.279 5.375-5.177 1.92c-.596.22-1.052.706-1.238 1.316-.182.607-.073 1.266.299 1.781l3.239 4.473-4.051 3.756c-.465.433-.703 1.058-.641 1.69.063.631.418 1.199.959 1.532l4.705 2.895-2.303 5.019c-.267.578-.246 1.245.053 1.804.3.562.844.95 1.47 1.051l5.454.874-.205 5.519c-.024.635.249 1.244.739 1.647.493.402 1.142.554 1.761.403l5.373-1.277 1.922 5.177c.22.595.706 1.052 1.315 1.238.607.182 1.268.073 1.782-.299l4.473-3.239 3.757 4.049c.386.416.927.652 1.491.652l.199-.01c.631-.064 1.198-.418 1.531-.958l2.895-4.706 5.021 2.303c.575.267 1.244.246 1.804-.053.561-.299.948-.844 1.05-1.472l.873-5.453 5.522.209h.092c1.122 0 2.032-.908 2.032-2.032 0-.252-.046-.494-.13-.717l-1.222-5.126 5.177-1.922c.597-.222 1.055-.708 1.239-1.315.182-.607.072-1.266-.3-1.783l-3.239-4.473 4.052-3.756c.466-.432.703-1.057.638-1.691zm-32.236.444c-.703 0-1.28.242-1.73.73-.452.489-.725 1.21-.823 2.165h5.117c-.068-.97-.328-1.693-.78-2.175-.45-.48-1.045-.72-1.783-.72m-7.721 7.839c0 .57-.13.997-.386 1.288-.258.289-.595.436-1.008.436-.421 0-.762-.152-1.025-.448-.262-.296-.391-.721-.391-1.276v-4.718c0-.934-.13-1.646-.386-2.14-.259-.495-.776-.744-1.546-.744-.503 0-.962.153-1.375.452-.415.301-.716.713-.91 1.239-.138.421-.206 1.213-.206 2.366v3.545c0 .576-.133 1.007-.4 1.293-.264.285-.605.431-1.027.431-.407 0-.74-.152-1.002-.448-.264-.296-.392-.721-.392-1.276v-8.182c0-.538.116-.942.35-1.206.234-.266.554-.4.961-.4.248 0 .472.059.672.176.199.118.36.294.48.53.121.232.18.523.18.861v.341c.497-.656 1.039-1.138 1.628-1.446.59-.308 1.266-.461 2.032-.461.744 0 1.41.163 1.996.486.586.325 1.021.786 1.313 1.381.185.346.305.718.36 1.119.055.4.083.913.083 1.534v5.268zm5.557-1.636c.251.491.584.86 1.001 1.107.416.252.877.377 1.38.377.337 0 .647-.04.926-.12.278-.079.548-.205.81-.373.262-.17.502-.352.724-.543.22-.195.508-.459.859-.791.143-.124.35-.185.618-.185.29 0 .524.079.703.24.179.158.27.383.27.673 0 .255-.1.557-.3.896-.199.343-.502.673-.905.986-.403.314-.91.576-1.519.785-.61.206-1.31.311-2.105.311-1.81 0-3.22-.52-4.226-1.558-1.006-1.037-1.508-2.443-1.508-4.219 0-.837.125-1.612.372-2.329.248-.716.61-1.329 1.086-1.84.473-.511 1.06-.903 1.756-1.179.696-.273 1.468-.409 2.316-.409 1.102 0 2.048.234 2.837.701.788.466 1.38 1.069 1.772 1.81.392.739.589 1.493.589 2.259 0 .713-.203 1.176-.61 1.386-.406.212-.979.317-1.716.317h-5.52c.007.643.137 1.209.39 1.701zm24.499-5.652l-2.305 6.783c-.199.573-.355.987-.466 1.243-.11.255-.283.486-.52.685-.24.201-.565.302-.978.302-.428 0-.764-.108-1.008-.323-.245-.214-.425-.478-.544-.789-.116-.312-.244-.714-.382-1.213l-1.613-5.517-1.559 5.517c-.209.766-.431 1.347-.672 1.735-.244.39-.666.589-1.273.589-.31 0-.574-.061-.79-.182-.218-.123-.397-.294-.544-.52-.143-.224-.271-.49-.382-.8l-.258-.728-2.285-6.783c-.227-.637-.341-1.076-.341-1.317 0-.306.12-.578.361-.82s.539-.362.889-.362c.469 0 .785.134.95.4.167.265.342.72.527 1.364l1.841 6.325 1.675-5.882c.179-.615.311-1.033.397-1.259.085-.223.247-.437.485-.642.239-.205.564-.306.977-.306.421 0 .75.101.986.306.239.205.406.425.503.663.096.237.232.651.402 1.238l1.675 5.882 1.86-6.325c.124-.459.224-.789.299-.992.078-.205.204-.384.384-.539.179-.155.437-.232.774-.232.338 0 .631.117.88.353.248.235.372.512.372.83 0 .289-.108.73-.32 1.317z" sketch:type="MSShapeGroup" fill="#ED0088"/></svg>