<svg width="24" height="24" viewBox="0 0 24 24" xmlns="http://www.w3.org/2000/svg" xmlns:sketch="http://www.bohemiancoding.com/sketch/ns"><title>button-icon-support</title><path d="M24 21c-2.417-1.738-5.174-3.227-8-4-.216.02-.301 0 0 0h-1l2 3-3 4h9c.769 0 1-.222 1 0v-2c0-.404-.057-.533 0-1zm-15-4h-1c-2.669.707-5.518 2.215-8 4 .057.468 0 .596 0 1v2c0-.222.232 0 1 0h9l-3-4 2-3zm3-4c-.446.341-.689.501-1 1-2.787-.572-3.735-3.151-4-3-.264-.151-.68-.591-1-1 .32-.535.546-.879 1-1-.13-.032 1.275-2.81 2-6-.03-.066.625 5.05 8 6 .453.121.679.465 1 1-.321.409-.737.85-1 1-.374 1.303-1.064 2.758-2 4v1c3.531-.167 6-1.813 6-2-3.411-1.895-.482-8.897-4-12-4.005-3.446-5-1.324-5-1 0-.324-.995-2.445-5 1-3.518 3.103-.59 10.105-4 12 0 .187 2.451 1.82 6 2v-1c-.506-.839-.956-1.528-1-2 .405.457 1.486 1.208 3 1 .261.644.527.834 1 1 .251-.166.585-.501 1-1-.415-.325-.749-.659-1-1z" sketch:type="MSShapeGroup" fill="#D4D8D9"/></svg>