<svg width="18" height="18" viewBox="0 0 18 18" xmlns="http://www.w3.org/2000/svg" xmlns:sketch="http://www.bohemiancoding.com/sketch/ns"><title>icon-phone</title><path d="M12.438 0h-6.875c-.86 0-1.563.675-1.563 1.5v15c0 .825.703 1.5 1.563 1.5h6.875c.859 0 1.562-.675 1.562-1.5v-15c0-.824-.703-1.5-1.562-1.5zm-4.375 1.2h1.875c.173 0 .313.134.313.299 0 .166-.14.301-.313.301h-1.875c-.171 0-.312-.135-.312-.301 0-.166.141-.299.312-.299zm.938 16.2c-.519 0-.938-.403-.938-.9s.42-.9.938-.9.938.403.938.9c0 .498-.42.9-.938.9zm-4.375-14.4h8.751v12h-8.751v-12z" sketch:type="MSShapeGroup" fill="#9E9EA8"/></svg>