<svg width="18" height="18" viewBox="0 0 18 18" xmlns="http://www.w3.org/2000/svg" xmlns:sketch="http://www.bohemiancoding.com/sketch/ns"><title>icon-special</title><path d="M14.804 11.824l-1.569-.294-.941 1.176-2.824-4.706h-.941l-2.824 4.706-.941-1.176-1.569.294 2.196-3.824h-4.392v10h16v-10h-4.392l2.196 3.824zm.196-9.199c-.316-2.619-3.056-2.625-3-2.625-1.413 0-2.365 1.077-3 2.333-.635-1.257-1.587-2.322-3-2.333.056.011-2.684.004-3 2.625.149.481.294 1.508.6 1.467h-3.6v2.908h18v-2.908h-3.6c.306.041.451-.984.6-1.467zm-7.8 1.275c-.892 0-1.575-.135-2.1-.3-.47-.327-.592-.597-.6-.9.1-1.287 1.157-1.484 1.5-1.5 1.112.012 1.906 1.344 2.4 2.7h-1.2zm5.7-.3c-.525.156-1.207.3-2.1.3h-1.2c.496-1.36 1.3-2.695 2.4-2.7.15.003 1.391.105 1.5 1.5-.008.301-.13.563-.6.9z" sketch:type="MSShapeGroup" fill="#9E9EA8"/></svg>