<svg width="18" height="18" viewBox="0 0 18 18" xmlns="http://www.w3.org/2000/svg" xmlns:sketch="http://www.bohemiancoding.com/sketch/ns"><title>icon-vkontakte</title><path d="M2.769.002h12.422c1.528 0 2.767 1.239 2.767 2.767v12.422c0 1.528-1.239 2.767-2.767 2.767h-12.422c-1.528 0-2.767-1.239-2.767-2.767v-12.422c0-1.528 1.239-2.767 2.767-2.767zm6.06 12.569h.734s.222-.024.335-.146c.104-.112.101-.323.101-.323s-.014-.986.443-1.131c.451-.143 1.03.952 1.644 1.374.464.319.817.249.817.249l1.641-.023s.858-.053.451-.728c-.033-.055-.237-.499-1.22-1.412-1.029-.955-.891-.801.348-2.452.755-1.006 1.057-1.62.962-1.883-.09-.251-.645-.184-.645-.184l-1.848.011s-.137-.019-.239.042c-.099.059-.163.198-.163.198s-.293.778-.682 1.441c-.823 1.397-1.152 1.471-1.286 1.384-.313-.202-.235-.812-.235-1.246 0-1.354.205-1.918-.4-2.065-.201-.048-.349-.081-.862-.086-.659-.007-1.217.002-1.533.157-.21.103-.372.332-.274.346.122.016.399.075.545.274.189.258.183.836.183.836s.109 1.594-.254 1.792c-.249.136-.591-.141-1.324-1.409-.376-.649-.66-1.367-.66-1.367s-.055-.134-.152-.206c-.118-.087-.284-.115-.284-.115l-1.756.011s-.264.007-.36.122c-.086.102-.007.313-.007.313s1.374 3.216 2.931 4.836c1.427 1.486 3.048 1.389 3.048 1.389z" sketch:type="MSShapeGroup" fill="#9E9EA8"/></svg>