<svg width="18" height="18" viewBox="0 0 18 18" xmlns="http://www.w3.org/2000/svg" xmlns:sketch="http://www.bohemiancoding.com/sketch/ns"><title>icon-message</title><path d="M12.269 9.384l5.48-5.148c.155.148.252.354.252.582v10.364c0 .215-.087.409-.228.556l-5.504-6.353zm-11.988-5.171c.15-.131.346-.213.563-.213h16.313c.218 0 .413.082.563.213l-8.719 6.605-8.719-6.605zm-.053 11.525c-.14-.146-.228-.34-.228-.556v-10.364c0-.228.096-.434.251-.582l5.48 5.148-5.504 6.353zm8.772-3.283l2.288-2.149 6.447 5.47c-.151.139-.354.225-.579.225h-16.313c-.224 0-.427-.086-.579-.225l6.447-5.47 2.288 2.149z" sketch:type="MSShapeGroup" fill="#9E9EA8"/></svg>