<svg width="18" height="18" viewBox="0 0 18 18" xmlns="http://www.w3.org/2000/svg" xmlns:sketch="http://www.bohemiancoding.com/sketch/ns"><title>icon-instagram</title><path d="M14.398 0h-10.949c-1.902 0-3.449 1.547-3.449 3.449v10.949c0 1.902 1.547 3.449 3.449 3.449h10.949c1.902 0 3.449-1.547 3.449-3.449v-10.949c0-1.902-1.547-3.449-3.449-3.449zm.989 2.057l.395-.001v3.025l-3.015.01-.01-3.025 2.631-.008zm-9.011 5.035c.571-.791 1.499-1.31 2.547-1.31s1.976.519 2.547 1.31c.372.517.594 1.148.594 1.832 0 1.732-1.41 3.141-3.142 3.141s-3.141-1.409-3.141-3.141c0-.684.222-1.315.594-1.832zm9.732 7.307c0 .943-.767 1.71-1.71 1.71h-10.949c-.943 0-1.71-.767-1.71-1.71v-7.307h2.664c-.23.566-.359 1.184-.359 1.832 0 2.69 2.189 4.88 4.88 4.88s4.88-2.19 4.88-4.88c0-.648-.13-1.266-.36-1.832h2.665v7.307z" sketch:type="MSShapeGroup" fill="#9E9EA8"/></svg>