<svg width="18" height="18" viewBox="0 0 18 18" xmlns="http://www.w3.org/2000/svg" xmlns:sketch="http://www.bohemiancoding.com/sketch/ns"><title>icon-search</title><path d="M10.96 13.693v-.14l.295-.294-.49-.559c-.667.342-1.421.539-2.221.539-2.699 0-4.894-2.195-4.894-4.893 0-2.699 2.195-4.894 4.894-4.894 2.698 0 4.894 2.195 4.894 4.894 0 1.336-.539 2.547-1.411 3.432l.392.541.267-.266h.266l2.453 3.267c1.603-1.625 2.595-3.855 2.595-6.319 0-4.97-4.029-9-9-9-4.97 0-9 4.03-9 9s4.03 9 9 9c1.623 0 3.141-.435 4.455-1.187-1.11-1.381-2.495-3.121-2.495-3.121zm-5.96-5.192c0 1.93 1.57 3.499 3.5 3.499s3.5-1.57 3.5-3.499c0-1.93-1.57-3.501-3.5-3.501s-3.5 1.57-3.5 3.501z" sketch:type="MSShapeGroup" fill="#9E9EA8"/></svg>