<svg width="18" height="18" viewBox="0 0 18 18" xmlns="http://www.w3.org/2000/svg" xmlns:sketch="http://www.bohemiancoding.com/sketch/ns"><title>icon-wifi</title><path d="M5.73 12.227c.08.525.434.851.79.727l.001.003c.807-.283 1.639-.424 2.47-.421.838-.003 1.678.146 2.499.43.355.126.707-.207.791-.735l.017-.223c0-.442-.206-.845-.51-.952-.918-.316-1.857-.475-2.797-.48-.932.003-1.861.162-2.771.476-.356.127-.574.65-.489 1.175zm-5.614-7.041c-.332.232-.471.817-.316 1.303.153.488.546.696.875.467v.004c2.636-1.847 5.475-2.767 8.321-2.767 2.847 0 5.688.92 8.323 2.767.33.231.722.021.877-.472.041-.135.061-.275.06-.412.001-.369-.14-.722-.378-.891-2.811-1.966-5.846-2.957-8.882-2.957-3.034 0-6.068.991-8.881 2.957zm3.585 2.584c-.344.18-.524.737-.405 1.245.116.508.492.78.835.602 1.558-.803 3.205-1.204 4.854-1.204 1.658.001 3.316.409 4.891 1.217.342.177.719-.095.836-.606.024-.105.035-.213.035-.318 0-.408-.17-.789-.444-.931-1.713-.873-3.514-1.32-5.319-1.319-1.791-.001-3.584.432-5.284 1.314zm5.299 10.229c1.105 0 2-.895 2-2s-.895-2-2-2-2 .895-2 2 .895 2 2 2z" sketch:type="MSShapeGroup" fill="#9E9EA8"/></svg>