<svg width="500" height="500" viewBox="0 0 500 500" xmlns="http://www.w3.org/2000/svg" xmlns:sketch="http://www.bohemiancoding.com/sketch/ns"><title>device-hover</title><desc>Created with Sketch.</desc><path d="M169.048 187.945c.865.151 1.75.191 2.615.191 5.24 0 9.998-2.437 11.275-6.021 3.721-10.874 5.622-21.99 5.683-33.096-.06-11.035-1.911-22.03-5.642-32.804-1.479-4.199-7.694-6.786-13.88-5.8-6.206.957-10.068 5.135-8.6 9.344h-.05c3.359 9.575 4.989 19.402 4.979 29.26.04 9.908-1.72 19.835-5.069 29.572-1.489 4.189 2.434 8.357 8.69 9.354zm97.24 70.038c1.599.493 3.249.725 4.868.725 4.365 0 8.529-1.671 10.541-4.481 23.244-33.277 34.951-69.202 34.951-105.138 0-35.915-11.707-71.81-34.961-105.107-2.736-3.927-9.646-5.578-15.409-3.725-5.763 1.802-8.227 6.454-5.522 10.341l-.04.01c21.826 31.203 32.698 64.802 32.698 98.482.01 33.69-10.873 67.319-32.698 98.512-2.736 3.897-.262 8.538 5.572 10.381zm-44.647-41.241c1.247.302 2.514.433 3.752.433 4.818 0 9.344-2.024 11.013-5.256 10.309-20.288 15.58-41.604 15.58-62.97.02-21.195-5.099-42.409-15.55-62.547-2.112-4.048-8.71-6.192-14.685-4.783-6.015 1.379-9.233 5.82-7.111 9.898 9.495 18.436 14.242 37.909 14.232 57.442 0 19.624-4.848 39.248-14.403 57.895-2.092 4.048 1.116 8.508 7.171 9.887zm257.191 97.898h-353.546v-198.052c0-2.437-1.991-4.43-4.425-4.43h-21.011c-2.434 0-4.415 1.994-4.415 4.43v198.052h-74.328c-11.878 0-21.564 9.686-21.564 21.587v102.792c0 11.921 9.686 21.597 21.564 21.597h457.727c11.909 0 21.574-9.676 21.574-21.597v-102.792c0-11.901-9.666-21.587-21.574-21.587zm-411.209 87.235c-7.383 0-13.407-6.021-13.407-13.432 0-7.421 6.025-13.432 13.407-13.432 7.413 0 13.407 6.011 13.407 13.432 0 7.411-5.995 13.432-13.407 13.432zm49.565 0c-7.413 0-13.397-6.021-13.397-13.432 0-7.421 5.984-13.432 13.397-13.432 7.403 0 13.407 6.011 13.407 13.432 0 7.411-6.005 13.432-13.407 13.432zm49.465 0c-7.413 0-13.407-6.021-13.407-13.432 0-7.421 5.995-13.432 13.407-13.432 7.393 0 13.407 6.011 13.407 13.432 0 7.411-6.015 13.432-13.407 13.432z" sketch:type="MSShapeGroup" fill="#ED0088"/></svg>