<svg width="500" height="500" viewBox="0 0 500 500" xmlns="http://www.w3.org/2000/svg" xmlns:sketch="http://www.bohemiancoding.com/sketch/ns"><title>phone-hover</title><desc>Created with Sketch.</desc><path d="M342.016 0h-183.333c-22.932 0-41.682 18.78-41.682 41.694v416.976c0 22.933 18.75 41.683 41.682 41.683h183.333c22.922 0 41.672-18.75 41.672-41.683v-416.976c0-22.913-18.75-41.694-41.672-41.694zm-116.664 33.367h50.015c4.594 0 8.342 3.72 8.342 8.327 0 4.607-3.748 8.347-8.342 8.347h-50.015c-4.584 0-8.322-3.74-8.322-8.347 0-4.607 3.738-8.327 8.322-8.327zm24.987 450.312c-13.813 0-25.007-11.19-25.007-25.01 0-13.831 11.194-25.03 25.007-25.03 13.834 0 25.027 11.2 25.027 25.03 0 13.821-11.194 25.01-25.027 25.01zm-116.664-400.282h233.378v333.569h-233.378v-333.569z" sketch:type="MSShapeGroup" fill="#ED0088"/></svg>