<svg width="500" height="500" viewBox="0 0 500 500" xmlns="http://www.w3.org/2000/svg" xmlns:sketch="http://www.bohemiancoding.com/sketch/ns"><title>sim</title><desc>Created with Sketch.</desc><path d="M420 100.695l-93.225-101.695c-2.01 1.541-5.559 0-8.475 0h-220.35c-10.838 0-16.95 6.184-16.95 16.949v466.102c0 10.776 6.112 16.949 16.95 16.949h305.1c10.847 0 16.95-6.174 16.95-16.949v-372.881c0-6.379-1.38-9.811 0-8.475zm-25.425 372.881h-288.15v-449.153h203.4l84.75 86.375v362.777zm-228.245-211.356v84.327c0 15.165 12.241 27.448 27.321 27.448h7.446v-78.574c-7.734-9.242-12.896-20.668-14.594-33.2h-20.173zm51.903 111.775h23.867v-55.972c-8.607-1.157-16.659-3.988-23.867-8.185v64.158zm-51.903-213.33v84.347h20.173c1.698-12.542 6.86-23.958 14.594-33.2v-78.584h-7.446c-15.08 0-27.321 12.273-27.321 27.438zm138.434-27.438v84.736c5.222 7.976 8.717 17.159 10.027 27.049h20.173v-84.347c0-15.165-12.221-27.438-27.312-27.438h-2.889zm-45.549 240.768h28.404v-67.059c-8.27 5.813-17.95 9.681-28.404 11.087v55.972zm28.404-240.768h-28.404v55.972c10.454 1.406 20.134 5.274 28.404 11.097v-67.069zm-45.519 0h-23.867v64.158c7.208-4.197 15.259-7.029 23.867-8.185v-55.972zm62.665 156.042v84.726h2.889c15.09 0 27.312-12.283 27.312-27.448v-84.327h-20.173c-1.31 9.88-4.805 19.073-10.027 27.049zm-8.578-49.681c-1.817-5.962-4.775-11.406-8.568-16.112-7.009-8.684-16.977-14.806-28.404-16.899-2.78-.489-5.639-.808-8.558-.808-2.939 0-5.778.319-8.558.808-9.124 1.675-17.354 5.952-23.867 12.044-3.356 3.131-6.235 6.72-8.558 10.688-2.8 4.766-4.845 10.05-5.857 15.703-.506 2.792-.814 5.653-.814 8.604 0 2.931.308 5.803.814 8.604 1.013 5.643 3.058 10.927 5.857 15.693 2.323 3.968 5.202 7.557 8.558 10.678 6.513 6.092 14.743 10.369 23.867 12.054 2.78.508 5.619.808 8.558.808 2.919 0 5.778-.299 8.558-.808 11.427-2.104 21.395-8.225 28.404-16.899 3.792-4.706 6.751-10.16 8.568-16.112.556-1.755.943-3.579 1.281-5.414.496-2.802.814-5.673.814-8.604 0-2.951-.318-5.813-.814-8.604-.338-1.854-.725-3.659-1.281-5.424z" sketch:type="MSShapeGroup" fill="#A5ACB0"/></svg>