<svg width="500" height="500" viewBox="0 0 500 500" xmlns="http://www.w3.org/2000/svg" xmlns:sketch="http://www.bohemiancoding.com/sketch/ns"><title>tablet-hover</title><desc>Created with Sketch.</desc><path d="M433.829 0h-366.909c-12.66 0-22.92 9.227-22.92 20.621v458.546c0 11.394 10.26 20.6 22.92 20.6h366.909c12.671 0 22.941-9.206 22.941-20.6v-458.546c0-11.394-10.27-20.621-22.941-20.621zm-183.444 483.734c-5.641 0-10.209-4.568-10.209-10.209s4.568-10.209 10.209-10.209c5.631 0 10.199 4.568 10.199 10.209s-4.568 10.209-10.199 10.209zm-154.832-439.769h309.664v404.898h-309.664v-404.898z" sketch:type="MSShapeGroup" fill="#ED0088"/></svg>