<svg viewBox="0 0 3212 234" xmlns="http://www.w3.org/2000/svg" xmlns:xlink="http://www.w3.org/1999/xlink" xmlns:sketch="http://www.bohemiancoding.com/sketch/ns"><title>logotype</title><defs><radialGradient cx="0%" cy="0%" fx="0%" fy="0%" r="100%" id="a"><stop stop-color="#B1B8C7" offset="0%"/><stop stop-color="#B1B8C7" offset="5.127%"/><stop stop-color="#9FA5B4" offset="16.967%"/><stop stop-color="#494E55" offset="88.764%"/><stop stop-color="#494E55" offset="100%"/></radialGradient><path d="M2335.864 22.142c-13.691 0-24.777 11.078-24.777 24.75 0 13.665 11.086 24.743 24.777 24.743 13.676 0 24.769-11.078 24.769-24.743 0-13.672-11.094-24.75-24.769-24.75zm0 72.6c-13.691 0-24.777 11.063-24.777 24.75 0 13.672 11.086 24.743 24.777 24.743 13.676 0 24.769-11.07 24.769-24.743 0-13.688-11.094-24.75-24.769-24.75zm875.465-40.748c-.053-45.81-30.376-52.883-44.682-53.67l-.15-.15-228.98-.052c0-.007.233 171.435.233 175.928.09 59.955 52.06 53.587 52.06 53.587l.128-185.655h58.32s.105 126.638.113 132.067c.09 59.955 52.06 53.587 52.06 53.587l.105-185.655h58.831s.113 126.638.113 132.067c.09 59.955 52.068 53.587 52.068 53.587s-.21-174.18-.218-175.642zm-334.077 36.36h-156.512v-46.373h130.842c50.454-.008 51.685-44.04 51.685-44.04h-208.655c-14.419 0-26.12 11.692-26.12 26.1v88.2c0 13.117 11.702 23.737 26.12 23.737.473 0 .901-.105 1.351-.135h155.16v48.278c-39.548-.053-120.469-.127-131.164-.135-50.454-.075-52.083 43.718-52.083 43.718l201.794.24 8.324.015v-.57c14.073-.42 25.377-11.88 25.377-26.032v-89.377c0-13.088-11.694-23.625-26.12-23.625zm-289.552-46.388c50.462-.008 52.023-43.793 52.023-43.793l-220.934-.045v.143c-13.968.51-25.182 11.917-25.182 26.01v178.5c0 7.417 3.137 14.07 8.099 18.825 4.774 5.16 11.544 8.43 19.125 8.43h191.534l.068.007c10.501 0 19.485-6.225 23.643-15.135 1.561-3.352 2.499-7.042 2.499-10.972l-.008-.015.008-82.98c0-14.407-11.702-26.1-26.128-26.1-1.231 0-2.402.195-3.588.36v-.203h-73.797s1.591 43.275 51.25 43.74v39.09h-140.457v-135.863h141.845z" id="b"/></defs><g sketch:type="MSLayerGroup" fill="none"><path d="M671.807 1.752s1.561 43.785 52.015 43.8h57.54v160.86c0 14.423 11.702 26.115 26.128 26.115 14.434 0 26.12-11.692 26.12-26.115v-160.86h58.808c50.462-.015 52.03-43.8 52.03-43.8h-272.642zm553.367 43.8c50.462-.015 52.03-43.8 52.03-43.8l-205.945.008v.105c-.353-.015-.691-.113-1.066-.113-14.426 0-26.128 11.693-26.128 26.115v178.545c0 14.423 11.702 26.115 26.128 26.115h207.011s-1.569-43.785-52.03-43.792h-128.86v-52.463h107.709s-1.561-43.785-52.03-43.785h-55.678v-46.935h128.86zm339.639 143.183h-128.995c-.068-48.15-.158-120.803-.18-134.377-.09-59.948-52.06-53.588-52.06-53.588s.255 206.602.285 207.12v.113h.015c.856 13.635 12.092 24.465 25.963 24.465.39 0 207.003.06 207.003.06s-1.561-43.785-52.03-43.792zm-964.499 0h-128.995s-.15-120.803-.18-134.377c-.083-59.948-52.06-53.588-52.06-53.588l.143 105.157h-.015s.128 101.445.158 101.962v.113h.015c.863 13.635 12.099 24.465 25.963 24.465.383 0 207.003.06 207.003.06s-1.561-43.785-52.03-43.792zm-408.64-167.153l-.098.067c-6.47-11.542-16.633-20.527-36.501-20.647l-3.475-.015v.128c-18.757.608-28.612 9.307-34.895 20.527l-.09-.06-116.4 209.7s45.846 8.512 66.914-26.482c1.434-2.37 5.051-8.858 10.043-17.903h122.945s-1.569-43.793-52.03-43.793h-46.926c18.705-34.23 40.134-73.507 51.062-92.992.495-.57 1.103-1.125 1.764-1.125 1.396 0 2.342 1.433 2.695 2.258l.023-.008c21.039 37.575 77.618 142.185 84.463 153.563 21.061 34.995 66.914 26.482 66.914 26.482l-116.408-209.7z" fill="#EE0084" sketch:type="MSShapeGroup"/><path d="M1991.039 99.418h-41.199c-.015-21.743-.045-39.18-.045-45.128-.098-59.947-52.075-53.58-52.075-53.58l.135 98.708h-105.472c-.053-31.095-.165-30.758-.18-45.06-.09-59.948-52.053-53.587-52.053-53.587l.158 59.43-.038-.03v56.873c0 14.415 11.694 26.108 26.128 26.108.368 0 .698-.105 1.058-.113v.165h130.399v63.098c0 .502.128 1.005.158 1.522v.12h.015c.856 13.635 12.099 24.458 25.963 24.458 12.7 0 23.268-9.067 25.61-21.083l.398.015-.008-3.885c.015-.375.113-.75.113-1.147v-63.098h41.079v-43.777l-.143-.007zm218.983-.998c-1.231 0-2.402.203-3.595.36v-.195h-73.797c0-.007 1.591 43.275 51.272 43.74v39.09h-140.472v-135.862h141.838c50.469-.015 52.03-43.8 52.03-43.8h-219.988c-14.434 0-26.128 11.693-26.128 26.115v71.558c50.312.09 51.88 43.777 51.88 43.777h-51.88v63.158c0 7.417 3.122 14.077 8.099 18.832 4.774 5.145 11.544 8.43 19.125 8.43h191.609c10.486 0 19.478-6.21 23.628-15.135 1.561-3.353 2.507-7.043 2.507-10.973l-.008-.015.008-82.98c0-14.415-11.702-26.1-26.128-26.1z" fill="url(#a)" sketch:type="MSShapeGroup"/><g transform="translate(0 1)"><use sketch:type="MSShapeGroup" xlink:href="#b"/><use fill="#AAABAB" xlink:href="#b"/></g></g></svg>